<?xml version="1.0" encoding="UTF-8" standalone="no"?>
<!-- Created with Inkscape (http://www.inkscape.org/) -->

<svg
   xmlns:dc="http://purl.org/dc/elements/1.1/"
   xmlns:cc="http://creativecommons.org/ns#"
   xmlns:rdf="http://www.w3.org/1999/02/22-rdf-syntax-ns#"
   xmlns:svg="http://www.w3.org/2000/svg"
   xmlns="http://www.w3.org/2000/svg"
   xmlns:sodipodi="http://sodipodi.sourceforge.net/DTD/sodipodi-0.dtd"
   xmlns:inkscape="http://www.inkscape.org/namespaces/inkscape"
   width="166.30669mm"
   height="207.70915mm"
   viewBox="0 0 166.30669 207.70916"
   version="1.1"
   id="svg8"
   inkscape:version="0.92.3 (d244b95, 2018-08-02)"
   sodipodi:docname="logosample.svg">
  <defs
     id="defs2" />
  <sodipodi:namedview
     id="base"
     pagecolor="#ffffff"
     bordercolor="#666666"
     borderopacity="1.0"
     inkscape:pageopacity="0.0"
     inkscape:pageshadow="2"
     inkscape:zoom="0.33315284"
     inkscape:cx="319.02035"
     inkscape:cy="255.17513"
     inkscape:document-units="mm"
     inkscape:current-layer="layer1"
     showgrid="false"
     inkscape:pagecheckerboard="true"
     showguides="false"
     inkscape:window-width="1307"
     inkscape:window-height="744"
     inkscape:window-x="59"
     inkscape:window-y="24"
     inkscape:window-maximized="1" />
  <metadata
     id="metadata5">
    <rdf:RDF>
      <cc:Work
         rdf:about="">
        <dc:format>image/svg+xml</dc:format>
        <dc:type
           rdf:resource="http://purl.org/dc/dcmitype/StillImage" />
        <dc:title></dc:title>
      </cc:Work>
    </rdf:RDF>
  </metadata>
  <g
     inkscape:label="Layer 1"
     inkscape:groupmode="layer"
     id="layer1"
     transform="translate(-0.8399755,-37.598594)">
    <path
       style="opacity:1;fill:#fcdc00;fill-opacity:1;stroke:#b3b3b3;stroke-width:0.26458332;stroke-opacity:1"
       d="m 80.760491,115.19773 c -1.406529,0.96594 -2.846222,1.93029 -4.215839,3.59353 -1.020669,2.0478 -2.736972,1.24819 -3.150034,6.77111 -0.161654,1.7484 0.14113,3.28851 0.563453,2.36424 1.509623,-1.68341 3.470689,-3.1525 4.709107,1.91683 0.42064,3.10789 0.762019,6.63127 0.308592,10.07733 -0.147966,3.18352 -0.245463,6.46061 -0.599054,9.28401 0.0611,2.3872 -0.516116,3.54307 -0.449618,6.09357 -0.191878,4.3879 -0.863972,8.08078 -0.987218,12.5888 -0.303616,1.4002 -0.228866,3.49332 -0.416383,4.99292 -0.464562,4.93772 -0.7472,10.65712 -0.67157,16.06083 0.197482,8.15669 1.926145,13.49822 3.704083,14.96591 2.892873,3.23457 5.865633,-0.17594 8.620364,-3.99949 0.803359,-0.31439 1.628071,-3.53535 1.517445,-7.06413 -0.665739,-1.59448 -1.298628,2.03613 -2.013491,1.18247 -1.201188,-0.072 -2.87706,0.83598 -3.625422,-4.1099 -0.185963,-4.59799 -0.300424,-9.70108 0.176629,-13.93388 -0.113427,-2.6553 0.498572,-3.91813 0.450292,-6.601 0.191878,-4.38791 0.863972,-8.08078 0.987218,-12.5888 0.302184,-1.40194 0.23113,-3.47924 0.4147,-4.99006 0.647933,-4.10455 0.497506,-9.72375 1.025832,-14.03537 0.01145,-2.76442 0.229082,-6.56753 -0.159495,-8.82516 -0.191008,-2.25278 -0.431214,-4.75131 -0.920403,-6.37801 -1.337019,-6.06195 -3.464952,-6.41342 -5.269188,-7.36575 z"
       id="path896"
       inkscape:connector-curvature="0" />
    <path
       style="fill:#c10d00;fill-opacity:1;stroke:#000000;stroke-width:0.26458332;stroke-opacity:0"
       d="m 80.798252,100.31229 c -1.787059,-0.28317 -3.551256,1.27257 -4.298056,3.37979 -0.05713,1.02093 -0.252452,2.27402 0.109734,3.188 0.261332,0.40099 0.347746,1.1227 0.804744,1.40605 2.441241,3.02948 6.725402,2.54092 8.711228,-1.02966 0.333893,-1.31931 0.402203,-2.94984 -0.04588,-4.23063 -0.551568,-1.25043 -1.507662,-2.0247 -2.45977,-2.58664 -0.931321,-0.19432 -1.883268,-0.1068 -2.821973,-0.12691 z"
       id="path898"
       inkscape:connector-curvature="0" />
    <path
       style="opacity:1;fill:none;fill-opacity:1;stroke:#0000ff;stroke-width:7;stroke-linejoin:bevel;stroke-miterlimit:4;stroke-dasharray:none;stroke-opacity:1"
       id="path900"
       sodipodi:type="arc"
       sodipodi:cx="-147.28561"
       sodipodi:cy="98.232307"
       sodipodi:rx="72.5"
       sodipodi:ry="72.5"
       sodipodi:start="2.7669113"
       sodipodi:end="0.22741645"
       d="m -214.75587,124.76557 a 72.5,72.5 0 0 1 20.89875,-82.097147 72.5,72.5 0 0 1 84.48586,-6.232167 72.5,72.5 0 0 1 32.718926,78.141994"
       transform="rotate(-88.483724)"
       sodipodi:open="true" />
    <path
       style="fill:#c10d00;fill-opacity:1;stroke:none;stroke-width:0.26458332"
       d="m 103.30532,115.08938 c -1.20161,0.96594 -2.43155,1.93029 -3.601639,3.59353 -0.871979,2.0478 -2.338239,1.24819 -2.69113,6.77111 -0.138032,1.7484 0.120569,3.28851 0.481367,2.36424 1.289696,-1.68341 2.965062,-3.1525 4.023062,1.91683 0.35936,3.10789 0.651,6.63127 0.26364,10.07733 -0.12643,3.18352 -0.2097,6.46061 -0.51178,9.28401 0.0523,2.3872 -0.44093,3.54306 -0.38412,6.09356 -0.16393,4.38791 -0.73811,8.08078 -0.8434,12.5888 -0.259374,1.4002 -0.195513,3.49333 -0.355717,4.99293 -0.396885,4.93772 -0.638344,10.65712 -0.573743,16.06083 0.168713,8.15669 1.64553,13.49822 3.16446,14.96591 2.47141,3.23457 5.01107,-0.17594 7.36447,-3.99949 0.68631,-0.31439 1.39086,-3.53534 1.29636,-7.06413 -0.56876,-1.59448 -1.10943,2.03612 -1.72014,1.18248 -1.02619,-0.072 -2.4579,0.83597 -3.09722,-4.10992 -0.15888,-4.59798 -0.25666,-9.70108 0.15088,-13.93388 -0.0969,-2.65529 0.42595,-3.91813 0.38469,-6.601 0.16394,-4.38789 0.7381,-8.08078 0.8434,-12.58879 0.25815,-1.40194 0.19745,-3.47925 0.35427,-4.99007 0.55354,-4.10454 0.42502,-9.72374 0.87638,-14.03536 0.01,-2.76442 0.19571,-6.56753 -0.13621,-8.82516 -0.16318,-2.25278 -0.36839,-4.75131 -0.78631,-6.37801 -1.14222,-6.06195 -2.96014,-6.41342 -4.50153,-7.36575 z"
       id="path896-3"
       inkscape:connector-curvature="0" />
    <path
       style="fill:#fcdc00;fill-opacity:1;stroke:none;stroke-width:0.26458332"
       d="m 101.13294,100.20391 c -1.787064,-0.283177 -3.551265,1.27257 -4.298061,3.3798 -0.05713,1.02093 -0.25245,2.27401 0.109734,3.188 0.261331,0.40099 0.347743,1.1227 0.804742,1.40605 2.441235,3.02949 6.725415,2.54093 8.711235,-1.02966 0.33389,-1.31931 0.4022,-2.94984 -0.0459,-4.23064 -0.55157,-1.25043 -1.50766,-2.0247 -2.45977,-2.58664 -0.93132,-0.19432 -1.88327,-0.1068 -2.82198,-0.12691 z"
       id="path898-6"
       inkscape:connector-curvature="0" />
    <path
       style="opacity:1;fill:none;fill-opacity:1;stroke:#550071;stroke-width:7.00104427;stroke-linejoin:bevel;stroke-miterlimit:4;stroke-dasharray:none;stroke-opacity:1"
       id="path920"
       sodipodi:type="arc"
       sodipodi:cx="-98.401718"
       sodipodi:cy="146.76392"
       sodipodi:rx="88.767006"
       sodipodi:ry="91.216324"
       sodipodi:start="2.3222007"
       sodipodi:end="5.8947845"
       d="m -158.9999,213.4185 a 88.767006,91.216324 0 0 1 -22.11447,-99.76473 88.767006,91.216324 0 0 1 81.961182,-58.102909 88.767006,91.216324 0 0 1 82.906743,56.668629"
       transform="matrix(0.39619668,-0.91816567,0.90821458,0.41850481,0,0)"
       sodipodi:open="true" />
    <rect
       style="opacity:1;fill:none;fill-opacity:1;stroke:#550071;stroke-width:5;stroke-linejoin:bevel;stroke-miterlimit:4;stroke-dasharray:none;stroke-opacity:1"
       id="rect944"
       width="0.95081884"
       height="23.088783"
       x="-96.011757"
       y="40.380043"
       rx="2.8185534"
       ry="0.10712318"
       transform="scale(-1,1)" />
    <rect
       style="opacity:1;fill:none;fill-opacity:1;stroke:#550071;stroke-width:5.01235056;stroke-linejoin:bevel;stroke-miterlimit:4;stroke-dasharray:none;stroke-opacity:1"
       id="rect944-7"
       width="0.76000184"
       height="71.265007"
       x="39.791363"
       y="-135.63011"
       rx="2.7832694"
       ry="0.10708939"
       transform="matrix(-0.10724905,0.99423219,-0.99996639,-0.00819821,0,0)" />
    <path
       style="opacity:1;fill:none;fill-opacity:1;stroke:#e6e6e6;stroke-width:1.99999976;stroke-linejoin:bevel;stroke-miterlimit:4;stroke-dasharray:none;stroke-opacity:1"
       id="path900-5"
       sodipodi:type="arc"
       sodipodi:cx="116.5928"
       sodipodi:cy="-132.87959"
       sodipodi:rx="72.5"
       sodipodi:ry="72.5"
       sodipodi:start="3.1120712"
       sodipodi:end="5.63573"
       sodipodi:open="true"
       d="m 44.124386,-130.7396 a 72.5,72.5 0 0 1 48.393942,-70.52618 72.5,72.5 0 0 1 81.902012,24.65718"
       transform="rotate(106.7477)" />
    <flowRoot
       xml:space="preserve"
       id="flowRoot1031"
       style="font-style:normal;font-variant:normal;font-weight:normal;font-stretch:normal;font-size:53.33333206px;line-height:1.25;font-family:'AR PL UKai CN';-inkscape-font-specification:'AR PL UKai CN';letter-spacing:0px;word-spacing:0px;fill:#008100;fill-opacity:1;stroke:none"
       transform="matrix(0.26458333,0,0,0.26458333,0.56688921,41.611551)"><flowRegion
         id="flowRegion1033"
         style="fill:#008100;fill-opacity:1"><rect
           id="rect1035"
           width="495.26816"
           height="333.18042"
           x="-690.37384"
           y="475.75763"
           style="fill:#008100;fill-opacity:1" /></flowRegion><flowPara
         id="flowPara1037" /></flowRoot>  </g>
</svg>
