<?xml version="1.0" encoding="UTF-8" standalone="no"?>
<!-- Created with Inkscape (http://www.inkscape.org/) -->

<svg
   xmlns:dc="http://purl.org/dc/elements/1.1/"
   xmlns:cc="http://creativecommons.org/ns#"
   xmlns:rdf="http://www.w3.org/1999/02/22-rdf-syntax-ns#"
   xmlns:svg="http://www.w3.org/2000/svg"
   xmlns="http://www.w3.org/2000/svg"
   xmlns:sodipodi="http://sodipodi.sourceforge.net/DTD/sodipodi-0.dtd"
   xmlns:inkscape="http://www.inkscape.org/namespaces/inkscape"
   width="250mm"
   height="249.99998mm"
   viewBox="0 0 250 249.99999"
   version="1.1"
   id="svg8"
   inkscape:version="0.92.3 (3ce5693, 2018-03-11)"
   sodipodi:docname="kirana.svg">
  <defs
     id="defs2" />
  <sodipodi:namedview
     id="base"
     pagecolor="#ffffff"
     bordercolor="#666666"
     borderopacity="1.0"
     inkscape:pageopacity="0.0"
     inkscape:pageshadow="2"
     inkscape:zoom="0.35"
     inkscape:cx="204.03945"
     inkscape:cy="556.60248"
     inkscape:document-units="mm"
     inkscape:current-layer="layer1"
     showgrid="false"
     inkscape:pagecheckerboard="true"
     inkscape:window-width="1307"
     inkscape:window-height="744"
     inkscape:window-x="59"
     inkscape:window-y="24"
     inkscape:window-maximized="1" />
  <metadata
     id="metadata5">
    <rdf:RDF>
      <cc:Work
         rdf:about="">
        <dc:format>image/svg+xml</dc:format>
        <dc:type
           rdf:resource="http://purl.org/dc/dcmitype/StillImage" />
        <dc:title></dc:title>
      </cc:Work>
    </rdf:RDF>
  </metadata>
  <g
     inkscape:label="Layer 1"
     inkscape:groupmode="layer"
     id="layer1"
     transform="translate(70.615411,51.344939)">
    <path
       style="fill:none;stroke:none;stroke-width:0.26458332"
       d="M -250.97619,115.83196 V 13.131784 h 100.88317 100.883174 V 115.83196 218.53214 H -150.09302 -250.97619 Z m 106.84756,92.40876 c 2.1725,-1.17735 15.50062,-8.94605 29.61805,-17.26381 14.11743,-8.31775 29.752004,-17.50155 34.743493,-20.40844 4.991492,-2.9069 9.630941,-6.14834 10.309893,-7.20321 1.059274,-1.64578 1.264011,-7.27772 1.442781,-39.68707 0.114592,-20.77302 -0.0213,-41.848528 -0.302047,-46.834462 -0.464407,-8.248499 -0.690713,-9.242971 -2.511624,-11.03674 -1.100683,-1.084272 -12.449849,-8.104816 -25.220375,-15.601213 -12.770531,-7.496394 -29.524341,-17.340274 -37.230691,-21.875292 -11.48155,-6.75663 -14.58984,-8.241175 -17.2142,-8.221628 -2.61048,0.01946 -6.01539,1.700076 -18.41518,9.089568 -8.3669,4.986142 -25.30086,14.980504 -37.63102,22.209695 -12.33017,7.229191 -23.22736,14.136844 -24.21599,15.350341 l -1.79751,2.206357 -0.004,46.242974 -0.004,46.24298 2.20182,2.43435 c 1.66125,1.8367 58.50018,35.99451 75.06188,45.10904 3.45766,1.90288 6.6665,1.68641 11.16868,-0.75344 z"
       id="path218"
       inkscape:connector-curvature="0" />
    <path
       style="fill:#f9f9f9;stroke:none;stroke-width:0.26458332"
       d="m 31.865406,189.11708 c -45.969313,-22.88091 -85.206735,-42.90346 -93.20244,-47.56053 l -8.641294,-5.03307 -0.31855,-62.205203 -0.318533,-62.20518 3.404707,-2.7648279 C -61.650047,4.8327199 9.0607157,-31.339485 40.873784,-45.942543 c 13.301791,-6.105871 13.338178,-6.115021 17.808918,-4.479564 11.402217,4.17106 110.625568,55.1345881 116.893078,60.0391179 l 3.80881,2.9805141 v 61.276518 61.276547 l -4.50236,3.38841 c -2.47628,1.86363 -23.88608,13.19741 -47.57733,25.18616 -59.732338,30.22703 -69.619984,34.94586 -73.190627,34.92985 -1.71303,-0.006 -11.725017,-4.29975 -22.248867,-9.53793 z M 86.251653,159.59549 C 96.74366,154.70107 103.26005,150.59226 102.12429,149.58718 101.72654,149.23524 81.114418,138.61338 56.31953,125.98309 31.524648,113.3528 9.9361664,102.24678 8.3450868,101.30306 L 5.4521942,99.587213 14.029543,95.154447 c 4.717538,-2.438024 9.986804,-4.732365 11.709456,-5.098538 3.480868,-0.739918 8.404573,1.544584 65.797474,30.528711 18.221487,9.20206 34.103197,16.95383 35.292747,17.22617 1.97695,0.45265 28.51568,-12.30144 28.45955,-13.67719 -0.0278,-0.68165 -3.91416,-2.7003 -56.761983,-29.483309 C 76.460634,83.467287 58.280381,73.966385 58.12623,73.537148 57.972048,73.10795 79.504609,61.83074 105.97631,48.476697 132.44803,35.122658 153.92279,23.69328 153.69803,23.07809 153.16099,21.608265 133.35053,10.709237 129.79642,9.9282586 126.34914,9.1707559 118.17642,13.070917 24.767215,60.049867 l -71.907849,36.16511 v 13.939703 c 0,10.43932 0.387479,13.93587 1.543088,13.92448 0.848703,-0.008 5.605124,-1.95379 10.569851,-4.32318 4.964728,-2.36936 9.686579,-4.29505 10.493004,-4.27928 0.806423,0.0157 23.131162,10.94989 49.610527,24.29804 26.479367,13.34817 48.911665,24.27829 49.849535,24.28917 0.937871,0.0119 6.034695,-1.99993 11.326282,-4.46842 z M -34.901252,66.665987 C -23.484379,61.216452 57.958881,20.219689 81.933523,7.8539373 91.478593,2.9307358 99.988876,-1.8365142 100.84529,-2.7399479 102.18095,-4.148983 100.59086,-5.3161105 89.662967,-10.947791 82.656295,-14.558678 76.00828,-17.386112 74.889601,-17.230989 73.770906,-17.075866 45.861865,-3.3309751 12.869492,13.313223 l -59.98612,30.262175 -0.01141,13.059566 c -0.01141,11.855321 0.399301,14.500624 2.248723,14.500624 0.338129,0 4.828519,-2.01132 9.978623,-4.469601 z"
       id="path1025"
       inkscape:connector-curvature="0"
       clip-path="none" />
    <path
       style="opacity:0;fill:#a0a0a0;fill-opacity:0;stroke:none;stroke-width:0.26458332"
       d="M -250.49579,115.83196 V 13.131784 h 100.48284 100.482842 V 115.83196 218.53214 H -150.01295 -250.49579 Z m 105.91919,92.81354 c 3.76733,-1.93996 53.758196,-31.06275 65.115184,-37.93364 4.014651,-2.42884 8.158069,-5.34624 9.20759,-6.48312 l 1.908205,-2.06704 0.252808,-43.56212 c 0.174376,-30.047695 -0.02654,-44.931881 -0.647589,-47.977395 -1.069378,-5.243936 -0.650497,-4.920867 -25.626671,-19.765205 -40.925017,-24.323367 -53.282437,-31.203264 -56.046207,-31.203264 -2.31261,0 -11.15281,4.817366 -38.89124,21.19334 -28.71551,16.952818 -40.84009,24.600932 -42.55046,26.840574 -0.74002,0.969019 -0.98151,12.526395 -1.00082,47.89908 l -0.0255,46.6219 2.60215,1.97606 c 1.43118,1.08685 4.40363,2.9778 6.60544,4.20213 2.20182,1.22434 4.4921,2.63186 5.08952,3.12784 1.23087,1.02188 3.58237,2.45482 6.52006,3.97312 1.1009,0.56899 2.18179,1.26569 2.40197,1.54822 0.41053,0.52676 25.00425,15.35424 40.03301,24.13579 17.59165,10.27908 18.86625,10.65931 25.05253,7.47373 z"
       id="path1027"
       inkscape:connector-curvature="0" />
    <path
       style="fill:#a50000;fill-opacity:1;stroke:none;stroke-width:0.26458332"
       d="M -46.599114,56.815107 -46.252499,43.575398 6.3887144,17.096005 C 35.341379,2.5323344 62.610985,-11.055918 66.987844,-13.100116 l 7.957925,-3.716727 6.679468,3.014682 c 9.361609,4.2252055 18.406943,9.3404027 18.406943,10.4092382 0,2.1143111 -141.007824,73.4477328 -145.18726,73.4477328 -1.485961,0 -1.731668,-2.252791 -1.444034,-13.239703 z"
       id="path1051"
       inkscape:connector-curvature="0"
       clip-path="none" />
    <path
       style="fill:#a30000;fill-opacity:1;stroke:none;stroke-width:0.26458332"
       d="M 31.865435,142.66869 C 9.4598194,131.66476 -12.783823,120.89105 -17.56487,118.7271 l -8.692801,-3.93447 -9.824241,3.90429 -9.824238,3.90429 -0.971652,-3.23125 c -0.5344,-1.77718 -0.812156,-7.71409 -0.617224,-13.19311 l 0.354392,-9.961873 71.59926,-35.886646 C 103.20081,20.861477 123.24059,11.372886 127.8518,11.372886 c 1.68943,0 7.42742,2.489467 12.75109,5.532159 l 9.67939,5.532144 -3.00391,2.129622 c -1.65215,1.171288 -22.60193,12.368224 -46.5551,24.882109 -23.953148,12.513869 -43.551209,23.126869 -43.551209,23.584509 0,1.066511 13.486629,8.416107 54.933939,29.936461 18.33187,9.51831 34.68785,18.27117 36.3466,19.45076 l 3.01593,2.14471 -4.88492,2.69982 c -7.88679,4.35892 -17.54754,8.3987 -20.08469,8.3987 -2.64526,0 -0.62223,0.92984 -48.186937,-22.14816 C 59.046308,104.16816 39.164958,94.807793 34.13119,92.714858 l -9.152307,-3.805336 -7.930826,3.524344 c -4.36197,1.938404 -8.8231933,4.387634 -9.9138087,5.44275 -1.8588756,1.798314 -1.447655,2.221574 6.5706507,6.762844 4.704493,2.66447 25.158475,13.47049 45.453283,24.0134 20.294837,10.5429 37.641523,19.77519 38.548204,20.51621 1.357367,1.10931 1.030329,1.72966 -1.851706,3.51252 -3.929794,2.431 -20.817466,10.00423 -22.295049,9.99815 -0.526175,-0.003 -19.288572,-9.00712 -41.694196,-20.01105 z"
       id="path1057"
       inkscape:connector-curvature="0"
       clip-path="none" />
    <path
       style="fill:none;stroke:none;stroke-width:0.26458332"
       d="m -155.71075,207.59689 c -7.30268,-3.44801 -63.07117,-36.24868 -71.76606,-42.20978 l -4.6038,-3.15628 V 115.49079 68.750757 l 2.60215,-1.996785 c 6.48063,-4.972994 50.95849,-31.380636 68.4375,-40.633091 l 9.78915,-5.181858 3.82207,1.885801 c 8.17877,4.035381 58.17525,33.765045 69.676363,41.432007 l 6.605446,4.403376 v 46.785313 46.78531 l -4.603795,3.16128 c -7.78245,5.34399 -59.486604,35.99714 -68.884034,40.83838 -6.39589,3.29494 -6.86729,3.3531 -11.07499,1.3664 z m 25.19171,-27.36967 c 3.36997,-1.79104 7.2081,-4.17398 8.52919,-5.29542 2.00452,-1.70159 2.20325,-2.16837 1.20099,-2.82093 -0.66054,-0.43007 -14.53198,-8.77563 -30.82541,-18.54569 -16.29343,-9.77006 -29.60789,-18.13053 -29.58769,-18.57882 0.0507,-1.12388 10.01052,-6.92819 11.88839,-6.92819 1.84173,0 8.5419,3.66769 37.31547,20.42655 29.5884,17.23346 27.17416,16.18113 31.83793,13.87764 5.882625,-2.90549 14.600358,-8.2254 14.600358,-8.90973 0,-0.33892 -7.656313,-5.13809 -17.014028,-10.66484 -41.23503,-24.35376 -45.60998,-27.13087 -44.4929,-28.243 0.5814,-0.57883 11.32556,-7.15751 23.8759,-14.619314 28.064958,-16.686003 36.032725,-21.72901 36.019363,-22.797594 -0.0125,-0.999672 -10.811515,-8.255693 -14.257513,-9.579844 -2.21384,-0.850677 -3.05482,-0.63479 -8.51218,2.185109 -3.3306,1.720975 -28.84174,16.406288 -56.69144,32.634023 l -50.63579,29.50498 -0.2242,10.33541 c -0.18726,8.63214 -0.024,10.41364 0.99083,10.81006 0.66827,0.26107 3.77989,-0.87657 6.91471,-2.52805 3.60173,-1.89747 6.33147,-2.83884 7.4161,-2.5575 0.94403,0.24486 15.40771,8.34296 32.14151,17.99576 16.73379,9.6528 31.09066,17.55173 31.90414,17.55319 0.81349,0.002 4.23631,-1.46276 7.60627,-3.2538 z m -50.414,-86.285987 c 61.43101,-35.848792 61.22091,-35.714851 59.44363,-37.89491 -1.73112,-2.123438 -13.90511,-8.927304 -16.12322,-9.011039 -1.32034,-0.04984 -16.02275,8.05379 -41.05651,22.62941 l -38.99959,22.707058 v 9.218198 c 0,10.01105 0.33193,11.79677 2.19281,11.79677 0.67145,0 16.21575,-8.75047 34.54288,-19.445487 z"
       id="path1059"
       inkscape:connector-curvature="0" />
  </g>
</svg>
