<?xml version="1.0" encoding="UTF-8" standalone="no"?>
<!-- Created with Inkscape (http://www.inkscape.org/) -->

<svg
   xmlns:dc="http://purl.org/dc/elements/1.1/"
   xmlns:cc="http://creativecommons.org/ns#"
   xmlns:rdf="http://www.w3.org/1999/02/22-rdf-syntax-ns#"
   xmlns:svg="http://www.w3.org/2000/svg"
   xmlns="http://www.w3.org/2000/svg"
   xmlns:sodipodi="http://sodipodi.sourceforge.net/DTD/sodipodi-0.dtd"
   xmlns:inkscape="http://www.inkscape.org/namespaces/inkscape"
   width="209.09656mm"
   height="129.49435mm"
   viewBox="0 0 209.09656 129.49435"
   version="1.1"
   id="svg8"
   inkscape:version="0.92.3 (3ce5693, 2018-03-11)"
   sodipodi:docname="sage.svg">
  <defs
     id="defs2" />
  <sodipodi:namedview
     id="base"
     pagecolor="#ffffff"
     bordercolor="#666666"
     borderopacity="1.0"
     inkscape:pageopacity="0.0"
     inkscape:pageshadow="2"
     inkscape:zoom="0.35"
     inkscape:cx="390.7857"
     inkscape:cy="222.54948"
     inkscape:document-units="mm"
     inkscape:current-layer="layer1"
     showgrid="false"
     inkscape:pagecheckerboard="true"
     inkscape:window-width="1307"
     inkscape:window-height="744"
     inkscape:window-x="59"
     inkscape:window-y="24"
     inkscape:window-maximized="1" />
  <metadata
     id="metadata5">
    <rdf:RDF>
      <cc:Work
         rdf:about="">
        <dc:format>image/svg+xml</dc:format>
        <dc:type
           rdf:resource="http://purl.org/dc/dcmitype/StillImage" />
        <dc:title></dc:title>
      </cc:Work>
    </rdf:RDF>
  </metadata>
  <g
     inkscape:label="Layer 1"
     inkscape:groupmode="layer"
     id="layer1"
     transform="translate(-2.4379506,-78.221867)">
    <g
       id="g75"
       transform="matrix(4.0320627,0,0,4.7190482,-315.24481,-455.01015)"
       style="stroke-width:0.22924994">
      <path
         style="fill:#d6d7d4;stroke-width:0.22924994"
         d="m 82.2623,140.02402 c -1.925297,-0.62685 -3.473158,-2.44759 -3.473158,-4.08544 0,-1.05793 0.65637,-1.66794 1.686833,-1.56768 0.693316,0.0675 0.945249,0.30163 1.561372,1.45131 0.573064,1.06932 0.944272,1.44004 1.687573,1.68536 2.546899,0.84055 5.013109,-1.7243 2.915509,-3.03212 -0.316386,-0.19726 -1.411841,-0.55758 -2.434346,-0.80071 -3.53516,-0.84059 -5.152358,-2.29928 -5.152358,-4.64737 0,-2.66636 2.080543,-4.23333 5.62081,-4.23333 1.139267,0 2.45357,0.16064 2.924634,0.35746 2.715915,1.13479 3.569585,4.93421 1.108638,4.93421 -0.707497,0 -1.011422,-0.16231 -1.362455,-0.72761 -1.006035,-1.6201 -1.438333,-1.91823 -2.781498,-1.91823 -1.245654,0 -2.335129,0.61722 -2.335129,1.32292 0,0.52837 1.056219,1.30164 2.168856,1.58785 4.21558,1.08441 5.326726,1.66232 6.114025,3.17992 0.331059,0.63816 0.44432,1.3083 0.369009,2.18336 -0.05977,0.69442 -0.08207,1.2302 -0.04956,1.19063 0.03251,-0.0396 1.04407,-2.55927 2.247915,-5.59931 1.203845,-3.04004 2.410177,-5.74871 2.680739,-6.01927 0.636509,-0.63651 2.356118,-0.6525 3.10898,-0.0289 0.599602,0.49665 5.585031,12.58034 5.585031,13.53701 0,0.74627 -0.91268,1.61039 -1.70089,1.61039 -0.85706,0 -1.29577,-0.48554 -2.02213,-2.23803 l -0.60768,-1.46614 H 97.313552 94.50409 l -0.460244,1.2799 c -0.663913,1.84627 -1.14064,2.42427 -1.999536,2.42427 -1.115397,0 -1.714925,-0.82166 -1.541727,-2.11294 l 0.143044,-1.06648 -0.580671,0.86211 c -1.298318,1.92757 -5.005128,2.84772 -7.802658,1.93687 z m 16.015831,-8.4831 c -0.449373,-1.23693 -0.882851,-2.24896 -0.963284,-2.24896 -0.145448,0 -1.599904,3.92072 -1.594962,4.29948 0.0014,0.10914 0.761447,0.19843 1.688939,0.19843 h 1.68635 z m 10.120299,8.46969 c -1.67765,-0.54054 -3.47207,-2.1941 -4.2275,-3.89566 -0.93846,-2.11382 -0.88877,-5.38393 0.11291,-7.4313 1.30298,-2.6632 3.48086,-3.89083 6.89775,-3.88813 2.62378,0.002 3.7908,0.3934 5.11136,1.71396 0.9578,0.95779 1.12536,1.28673 1.12536,2.20919 0,0.80077 -0.13366,1.15537 -0.51178,1.35773 -1.02841,0.55039 -1.78939,0.31886 -2.6902,-0.81851 -1.55553,-1.96401 -3.81515,-2.29371 -5.57443,-0.81338 -1.10628,0.93088 -1.54348,2.09182 -1.53653,4.08009 0.007,2.08351 0.70084,3.70452 1.89703,4.43382 1.08306,0.66032 3.20695,0.70997 4.70639,0.11002 0.97229,-0.38904 1.06368,-0.50933 1.06368,-1.40012 0,-0.80548 -0.20652,-1.1772 -1.19062,-2.14303 -0.65484,-0.64268 -1.19063,-1.26278 -1.19063,-1.378 0,-0.11523 1.05311,-0.2095 2.34025,-0.2095 3.08017,0 3.216,0.14088 3.216,3.3354 0,2.86822 -0.19062,3.20084 -2.4036,4.19396 -2.02873,0.91044 -5.24682,1.1552 -7.14544,0.54346 z m 10.87196,-0.3999 c -0.5001,-0.50011 -0.52917,-0.88195 -0.52917,-6.95259 0,-5.38548 0.0666,-6.51844 0.41188,-7.01146 0.40157,-0.57331 0.54045,-0.58804 5.54694,-0.58804 4.8061,0 5.15261,0.0328 5.40896,0.51178 0.38417,0.71782 0.34146,1.23493 -0.14188,1.71828 -0.33818,0.33818 -1.10358,0.41578 -4.10105,0.41578 h -3.68526 v 1.5875 1.5875 h 3.39857 c 2.95647,0 3.45554,0.0629 3.83646,0.48385 0.54993,0.60766 0.55756,1.21075 0.0221,1.74621 -0.33511,0.33509 -1.07953,0.41577 -3.83647,0.41577 h -3.42068 v 1.85208 1.85209 h 3.64529 c 3.96965,0 4.82137,0.25247 4.82137,1.4292 0,1.34211 -0.55482,1.48121 -5.90781,1.48121 -4.58733,0 -4.97789,-0.0378 -5.46927,-0.52916 z m -16.51206,-12.23698 c -0.37939,-2.47387 -0.47558,-2.93857 -0.7188,-3.47238 -0.14559,-0.31953 -0.81961,-0.87448 -1.49782,-1.2332 -1.410977,-0.74631 -6.184116,-5.35905 -7.382616,-7.13453 -1.651528,-2.44659 -1.267997,-3.07624 0.990226,-1.62566 2.76625,1.77692 7.72901,7.13396 8.07758,8.71933 0.086,0.39135 0.30119,1.17703 0.4781,1.74595 l 0.32167,1.03441 0.45938,-1.29899 c 0.9585,-2.71029 1.658,-3.7228 4.66516,-6.75261 3.11176,-3.13521 5.363,-4.77403 5.86646,-4.27056 0.89749,0.89748 -5.76434,8.34285 -8.71967,9.74524 -1.06478,0.50527 -1.57938,1.58914 -1.81223,3.81701 -0.1815,1.73646 -0.52058,2.07487 -0.72744,0.72599 z"
         id="path89"
         inkscape:connector-curvature="0" />
      <path
         style="fill:#c5c8ba;stroke-width:0.22924994"
         d="m 82.421463,140.06929 c -2.027945,-0.66311 -3.632321,-2.53834 -3.632321,-4.24554 0,-0.8643 0.843139,-1.56377 1.757955,-1.4584 0.589492,0.0679 0.892162,0.36237 1.439645,1.4006 0.48729,0.9241 0.954905,1.4214 1.574099,1.67406 2.328536,0.95014 5.097247,-1.2156 3.45455,-2.70222 -0.27775,-0.25136 -1.63609,-0.78478 -3.018534,-1.18537 -2.863737,-0.82982 -3.689715,-1.29269 -4.441326,-2.4889 -0.400721,-0.63776 -0.506896,-1.17655 -0.432096,-2.19268 0.189662,-2.57649 1.81646,-3.84386 5.172061,-4.02935 2.371847,-0.1311 3.911434,0.38528 5.064649,1.69872 1.371753,1.56234 0.898089,3.5455 -0.84682,3.5455 -0.510263,0 -0.836157,-0.25331 -1.27652,-0.99219 -0.833121,-1.39789 -1.23811,-1.65365 -2.618528,-1.65365 -2.072338,0 -3.147374,1.34334 -1.787892,2.23411 0.330913,0.21682 1.670366,0.70211 2.976562,1.0784 1.306197,0.3763 2.809073,0.9691 3.339725,1.31732 1.185589,0.778 1.959374,2.56962 1.72734,3.99948 -0.08579,0.52869 -0.10874,0.91401 -0.05099,0.85626 0.05775,-0.0578 1.063678,-2.5343 2.235392,-5.50344 1.171714,-2.96914 2.390281,-5.67508 2.707927,-6.0132 0.790007,-0.84092 2.432177,-0.85099 3.170776,-0.0195 0.586942,0.66081 5.516603,12.61945 5.516603,13.38248 0,0.64101 -1.08343,1.63263 -1.78378,1.63263 -0.68914,0 -1.42265,-0.90068 -2.03118,-2.49408 l -0.46214,-1.21009 h -2.841978 -2.841981 l -0.641865,1.64952 c -0.765461,1.96715 -1.575653,2.45716 -2.76943,1.67496 -0.637199,-0.41751 -0.69949,-0.59052 -0.583404,-1.62044 l 0.129962,-1.15302 -0.561962,0.84897 c -1.17603,1.77665 -5.123388,2.79338 -7.644501,1.96901 z m 15.865273,-8.64791 c -0.463941,-1.30267 -0.92475,-2.28493 -1.024018,-2.18281 -0.09927,0.10212 -0.537647,1.16794 -0.974175,2.36849 l -0.793688,2.18281 h 1.817706 1.817706 z m 10.532614,8.62882 c -3.57094,-1.1828 -5.22679,-3.48439 -5.26531,-7.31866 -0.0482,-4.79985 2.46505,-7.60916 7.0524,-7.8831 2.73304,-0.16321 4.20855,0.27089 5.66538,1.66678 0.92664,0.88788 1.14649,1.27694 1.14649,2.02892 0,1.09947 -0.65615,1.80615 -1.677,1.80615 -0.5278,0 -0.89481,-0.26803 -1.43437,-1.04757 -1.27189,-1.83756 -2.9489,-2.28294 -5.03351,-1.3368 -1.51168,0.6861 -2.16018,2.07226 -2.16765,4.63333 -0.006,2.20133 0.50957,3.41955 1.81884,4.2942 1.09575,0.73201 3.1997,0.80897 4.78417,0.17499 0.97317,-0.38939 1.06368,-0.5088 1.06368,-1.40331 0,-0.77555 -0.19595,-1.16622 -0.94775,-1.8895 -1.80242,-1.73403 -1.75688,-1.83784 0.80615,-1.83784 3.10046,0 3.3166,0.22498 3.3166,3.45222 0,2.24166 -0.044,2.43465 -0.69185,3.03507 -1.63861,1.51861 -6.13994,2.38572 -8.43627,1.62512 z m 10.57131,-0.55976 -0.64944,-0.64943 v -6.30315 c 0,-5.27663 0.0671,-6.39893 0.41188,-6.8912 0.40088,-0.57234 0.54519,-0.58804 5.40506,-0.58804 4.18648,0 5.06035,0.0672 5.40896,0.41578 0.55242,0.55242 0.52574,1.25477 -0.0681,1.79217 -0.40057,0.36251 -1.10651,0.43789 -4.10105,0.43789 h -3.61718 v 1.5875 1.5875 h 3.43348 c 3.37042,0 3.44144,0.0121 3.86689,0.66146 0.40148,0.61274 0.40148,0.71017 0,1.32291 -0.42545,0.64931 -0.49647,0.66146 -3.86689,0.66146 h -3.43348 v 1.85208 1.85209 h 3.70416 c 3.35139,0 3.75457,0.0504 4.23334,0.52916 0.29104,0.29105 0.52916,0.70776 0.52916,0.92605 0,0.21828 -0.23812,0.635 -0.52916,0.92604 -0.49007,0.49007 -0.88195,0.52916 -5.3037,0.52916 -4.71647,0 -4.78242,-0.008 -5.42395,-0.64943 z m -16.52444,-12.23165 c 0,-0.39063 -0.18914,-1.38435 -0.42032,-2.20825 -0.39178,-1.39632 -0.53645,-1.57437 -2.131,-2.62272 -4.000638,-2.63027 -9.491506,-9.27545 -7.66424,-9.27545 1.006716,0 5.753935,4.17907 8.00493,7.0469 0.89631,1.14192 1.83297,3.36463 2.32485,5.51692 0.0328,0.14338 0.34696,-0.66511 0.6982,-1.79664 0.7611,-2.45187 2.21584,-4.51486 5.1473,-7.29946 2.02835,-1.92674 4.1648,-3.46772 4.80771,-3.46772 0.66846,0 0.33213,1.02313 -0.85584,2.60347 -1.64011,2.18183 -5.968,6.22926 -7.40447,6.92465 -1.03503,0.50104 -1.22485,0.73196 -1.57729,1.91876 -0.22036,0.74204 -0.40066,1.80381 -0.40066,2.35948 0,0.55567 -0.11906,1.01031 -0.26458,1.01031 -0.14552,0 -0.26459,-0.31961 -0.26459,-0.71025 z"
         id="path87"
         inkscape:connector-curvature="0" />
      <path
         style="fill:#bfc0c0;stroke-width:0.22924994"
         d="m 82.421463,140.06929 c -2.027945,-0.66311 -3.632321,-2.53834 -3.632321,-4.24554 0,-0.8643 0.843139,-1.56377 1.757955,-1.4584 0.589492,0.0679 0.892162,0.36237 1.439645,1.4006 0.48729,0.9241 0.954905,1.4214 1.574099,1.67406 2.328536,0.95014 5.097247,-1.2156 3.45455,-2.70222 -0.27775,-0.25136 -1.63609,-0.78478 -3.018534,-1.18537 -2.863737,-0.82982 -3.689715,-1.29269 -4.441326,-2.4889 -0.400721,-0.63776 -0.506896,-1.17655 -0.432096,-2.19268 0.189662,-2.57649 1.81646,-3.84386 5.172061,-4.02935 2.371847,-0.1311 3.911434,0.38528 5.064649,1.69872 1.371753,1.56234 0.898089,3.5455 -0.84682,3.5455 -0.510263,0 -0.836157,-0.25331 -1.27652,-0.99219 -0.833121,-1.39789 -1.23811,-1.65365 -2.618528,-1.65365 -2.072338,0 -3.147374,1.34334 -1.787892,2.23411 0.330913,0.21682 1.670366,0.70211 2.976562,1.0784 1.306197,0.3763 2.809073,0.9691 3.339725,1.31732 1.185589,0.778 1.959374,2.56962 1.72734,3.99948 -0.08579,0.52869 -0.10874,0.91401 -0.05099,0.85626 0.05775,-0.0578 1.063678,-2.5343 2.235392,-5.50344 1.171714,-2.96914 2.390281,-5.67508 2.707927,-6.0132 0.790007,-0.84092 2.432177,-0.85099 3.170776,-0.0195 0.586942,0.66081 5.516603,12.61945 5.516603,13.38248 0,0.64101 -1.08343,1.63263 -1.78378,1.63263 -0.68914,0 -1.42265,-0.90068 -2.03118,-2.49408 l -0.46214,-1.21009 h -2.841978 -2.841981 l -0.641865,1.64952 c -0.765461,1.96715 -1.575653,2.45716 -2.76943,1.67496 -0.637199,-0.41751 -0.69949,-0.59052 -0.583404,-1.62044 l 0.129962,-1.15302 -0.561962,0.84897 c -1.17603,1.77665 -5.123388,2.79338 -7.644501,1.96901 z m 15.865273,-8.64791 c -0.463941,-1.30267 -0.92475,-2.28493 -1.024018,-2.18281 -0.09927,0.10212 -0.537647,1.16794 -0.974175,2.36849 l -0.793688,2.18281 h 1.817706 1.817706 z m 10.532614,8.62882 c -3.57094,-1.1828 -5.22679,-3.48439 -5.26531,-7.31866 -0.0482,-4.79985 2.46505,-7.60916 7.0524,-7.8831 2.73304,-0.16321 4.20855,0.27089 5.66538,1.66678 0.92664,0.88788 1.14649,1.27694 1.14649,2.02892 0,1.09947 -0.65615,1.80615 -1.677,1.80615 -0.5278,0 -0.89481,-0.26803 -1.43437,-1.04757 -1.27189,-1.83756 -2.9489,-2.28294 -5.03351,-1.3368 -1.51168,0.6861 -2.16018,2.07226 -2.16765,4.63333 -0.006,2.20133 0.50957,3.41955 1.81884,4.2942 1.09575,0.73201 3.1997,0.80897 4.78417,0.17499 0.97317,-0.38939 1.06368,-0.5088 1.06368,-1.40331 0,-0.77555 -0.19595,-1.16622 -0.94775,-1.8895 -1.80242,-1.73403 -1.75688,-1.83784 0.80615,-1.83784 3.10046,0 3.3166,0.22498 3.3166,3.45222 0,2.24166 -0.044,2.43465 -0.69185,3.03507 -1.63861,1.51861 -6.13994,2.38572 -8.43627,1.62512 z m 10.57131,-0.55976 -0.64944,-0.64943 v -6.30315 c 0,-5.27663 0.0671,-6.39893 0.41188,-6.8912 0.40088,-0.57234 0.54519,-0.58804 5.40506,-0.58804 4.18648,0 5.06035,0.0672 5.40896,0.41578 0.55242,0.55242 0.52574,1.25477 -0.0681,1.79217 -0.40057,0.36251 -1.10651,0.43789 -4.10105,0.43789 h -3.61718 v 1.5875 1.5875 h 3.43348 c 3.37042,0 3.44144,0.0121 3.86689,0.66146 0.40148,0.61274 0.40148,0.71017 0,1.32291 -0.42545,0.64931 -0.49647,0.66146 -3.86689,0.66146 h -3.43348 v 1.85208 1.85209 h 3.70416 c 3.35139,0 3.75457,0.0504 4.23334,0.52916 0.29104,0.29105 0.52916,0.70776 0.52916,0.92605 0,0.21828 -0.23812,0.635 -0.52916,0.92604 -0.49007,0.49007 -0.88195,0.52916 -5.3037,0.52916 -4.71647,0 -4.78242,-0.008 -5.42395,-0.64943 z m -16.49401,-12.31515 c -0.0123,-0.50932 0.0931,-1.10464 0.23416,-1.32292 0.20165,-0.31202 0.25171,-0.25546 0.23416,0.26459 -0.0123,0.3638 -0.11765,0.95911 -0.23416,1.32291 -0.1941,0.60608 -0.21371,0.58393 -0.23416,-0.26458 z m -0.49185,-2.46925 c -0.27898,-1.04307 -0.5314,-1.32662 -2.12268,-2.38451 -1.971044,-1.31034 -6.203514,-5.52029 -7.306644,-7.26777 -0.698643,-1.10672 -0.890123,-1.90139 -0.458152,-1.90139 1.179375,0 8.130156,6.49907 9.063036,8.47405 0.63433,1.34294 1.34937,3.63856 1.23769,3.9736 -0.0531,0.15943 -0.23911,-0.24286 -0.41325,-0.89398 z m 1.01148,0.19824 c 0.0127,-0.30822 0.0754,-0.37092 0.15985,-0.15985 0.0764,0.191 0.067,0.4192 -0.0209,0.50712 -0.0879,0.0879 -0.15045,-0.0683 -0.13896,-0.34727 z m 0.38641,-1.03628 c 0.0986,-0.29104 0.29253,-0.92167 0.43098,-1.40139 0.71913,-2.49171 8.73698,-10.14592 9.66052,-9.22238 0.74362,0.74362 -5.26411,7.50373 -8.09969,9.11408 -0.79054,0.44895 -1.60244,1.09136 -1.80421,1.42757 -0.28272,0.47108 -0.32575,0.48992 -0.1876,0.0821 z"
         id="path85"
         inkscape:connector-curvature="0" />
      <path
         style="fill:#a5aa94;stroke-width:0.22924994"
         d="m 83.022475,140.17208 c -2.179126,-0.47579 -3.853885,-2.02978 -4.149275,-3.85005 -0.179048,-1.10335 0.428528,-2.00564 1.346011,-1.99894 0.809357,0.006 1.098154,0.26067 1.787391,1.57667 0.757831,1.44697 1.576978,1.91679 3.082868,1.76817 2.001973,-0.19758 3.099783,-1.86781 1.925921,-2.93014 -0.27775,-0.25136 -1.639489,-0.78576 -3.026087,-1.18756 -2.891115,-0.83775 -4.226579,-1.72105 -4.680213,-3.09558 -1.050559,-3.18322 1.329624,-5.65936 5.433175,-5.65221 2.185832,0.004 3.652582,0.57287 4.7073,1.82633 1.201923,1.42841 0.754032,3.46495 -0.759383,3.45289 -0.694733,-0.006 -0.967405,-0.2315 -1.665206,-1.37992 -0.837247,-1.37791 -2.219683,-1.79408 -3.645929,-1.09757 -1.151238,0.56221 -1.427177,1.35649 -0.698949,2.01189 0.261067,0.23496 1.605761,0.74394 2.988209,1.13105 1.382448,0.38712 2.870729,0.92423 3.307292,1.19357 2.760337,1.70306 2.337894,6.15402 -0.724798,7.63665 -1.280815,0.62003 -3.800052,0.90661 -5.228327,0.59475 z m 7.996371,-0.1795 c -0.360903,-0.25279 -0.588038,-0.68796 -0.588038,-1.12664 0,-0.9926 4.670392,-12.746 5.355125,-13.47659 0.636888,-0.67953 2.159269,-0.79929 2.910453,-0.22894 0.553298,0.42011 1.225966,1.90624 3.819894,8.43938 1.08517,2.73312 1.93525,5.16128 1.88909,5.39592 -0.0462,0.23465 -0.41682,0.67492 -0.82367,0.9784 -0.6832,0.50961 -0.7944,0.52113 -1.45521,0.15084 -0.46053,-0.25807 -0.92116,-0.91608 -1.29272,-1.84665 l -0.57725,-1.44572 -2.898894,-0.0745 -2.898891,-0.0745 -0.482368,1.34142 c -0.806849,2.24377 -1.707659,2.84309 -2.957521,1.96765 z m 8.082413,-6.26885 c -0.06458,-0.1819 -0.462227,-1.313 -0.883665,-2.51354 -0.421437,-1.20055 -0.827824,-2.18251 -0.903081,-2.18213 -0.07526,3.7e-4 -0.481559,0.98264 -0.902895,2.18281 -0.421335,1.20017 -0.821027,2.33096 -0.888203,2.51286 -0.09059,0.2453 0.370849,0.33073 1.786559,0.33073 1.413191,0 1.878217,-0.0859 1.791285,-0.33073 z m 9.763681,6.31795 c -1.76058,-0.49566 -3.32474,-1.66329 -4.26461,-3.18351 -0.70878,-1.14642 -0.80289,-1.55306 -0.89601,-3.87157 -0.0932,-2.32159 -0.0363,-2.73724 0.54793,-4.00253 1.37078,-2.96845 3.27077,-4.05724 7.08064,-4.05754 2.19017,-1.7e-4 2.6654,0.0849 3.69393,0.66126 2.05954,1.15412 3.01573,3.3218 1.90763,4.32462 -0.74018,0.66985 -1.5813,0.52693 -2.44147,-0.41483 -0.42836,-0.469 -0.77884,-0.95132 -0.77884,-1.07184 0,-0.12051 -0.41289,-0.39164 -0.91754,-0.60249 -3.6085,-1.50773 -6.61719,1.82547 -5.66315,6.27397 0.18991,0.88554 0.5894,1.67934 1.15664,2.29831 0.80668,0.88024 0.99195,0.95226 2.68227,1.04263 1.25571,0.0671 2.12176,-0.0328 2.80793,-0.32394 0.89939,-0.38165 0.99218,-0.51537 0.99218,-1.42969 0,-0.74503 -0.17964,-1.17632 -0.68732,-1.6501 -0.37803,-0.35279 -0.92192,-0.96885 -1.20864,-1.36904 l -0.52132,-0.7276 h 2.26698 c 3.11031,0 3.3253,0.2232 3.3253,3.45222 0,2.24166 -0.044,2.43465 -0.69185,3.03507 -1.61346,1.4953 -5.89289,2.31981 -8.39068,1.6166 z m 10.51258,-0.56438 -0.66257,-0.66257 0.0793,-6.50288 c 0.0742,-6.08161 0.11256,-6.52718 0.59288,-6.87805 0.79128,-0.57803 9.9967,-0.54271 10.58001,0.0406 0.52314,0.52314 0.52403,0.89942 0.004,1.64202 -0.39213,0.55985 -0.5887,0.58804 -4.10104,0.58804 h -3.68916 v 1.5875 1.5875 h 3.38666 c 3.63953,0 4.02167,0.1257 4.02167,1.32291 0,1.19722 -0.38214,1.32292 -4.02167,1.32292 h -3.38666 v 1.85208 1.85209 h 3.70416 c 3.35139,0 3.75457,0.0504 4.23334,0.52916 0.29104,0.29105 0.52916,0.70776 0.52916,0.92605 0,0.21828 -0.23812,0.635 -0.52916,0.92604 -0.49007,0.49007 -0.88195,0.52916 -5.3037,0.52916 -4.74219,0 -4.77901,-0.004 -5.43709,-0.66257 z m -16.47594,-12.30201 c -0.015,-0.50932 0.0882,-1.10464 0.22923,-1.32292 0.21103,-0.32655 0.25165,-0.3031 0.22923,0.1323 -0.015,0.29104 -0.11815,0.88635 -0.22923,1.32291 l -0.20198,0.79375 z m -0.27905,-1.74184 c 0.0127,-0.30822 0.0754,-0.37092 0.15985,-0.15985 0.0764,0.19099 0.067,0.4192 -0.0209,0.50712 -0.0879,0.0879 -0.15045,-0.0684 -0.13896,-0.34727 z m 0.79375,-0.52917 c 0.0127,-0.30822 0.0754,-0.37092 0.15985,-0.15985 0.0764,0.191 0.067,0.4192 -0.0209,0.50712 -0.0879,0.0879 -0.15045,-0.0683 -0.13896,-0.34727 z m -1.17031,-0.70174 c -0.12164,-0.48462 -0.6543,-1.02272 -1.63064,-1.64728 -2.895386,-1.85216 -8.322959,-7.67717 -8.329895,-8.93987 -0.0035,-0.63211 0.226083,-0.58791 1.655931,0.31887 2.735947,1.73509 8.131104,7.57405 8.131104,8.79997 0,0.2789 0.12679,0.744 0.28175,1.03354 0.15496,0.28954 0.23463,0.66775 0.17706,0.84047 -0.0576,0.17272 -0.18596,-0.01 -0.28531,-0.4057 z m 1.56567,-0.33454 c 0.0924,-0.29104 0.27005,-0.86939 0.39475,-1.28522 0.50199,-1.67403 4.46835,-6.0673 7.47798,-8.28287 3.20148,-2.35679 3.048,-0.8955 -0.32185,3.06455 -1.48413,1.74406 -4.84316,4.65768 -6.13195,5.31885 -0.51862,0.26606 -1.08785,0.76052 -1.26495,1.0988 -0.22615,0.43195 -0.27199,0.45752 -0.15398,0.0859 z"
         id="path83"
         inkscape:connector-curvature="0" />
      <path
         style="fill:#838484;stroke-width:0.22924994"
         d="m 82.66991,140.04077 c -0.703234,-0.19764 -1.596203,-0.59481 -1.984375,-0.8826 -0.893915,-0.66275 -1.886366,-2.38154 -1.892041,-3.27677 -0.0051,-0.80822 0.731217,-1.56236 1.525483,-1.56236 0.552086,0 0.808822,0.27192 1.990389,2.10814 0.68153,1.05913 1.804678,1.48337 3.222797,1.21733 1.880954,-0.35287 2.612697,-2.00211 1.334427,-3.00759 -0.359591,-0.28286 -1.44002,-0.71178 -2.400952,-0.95315 -3.656785,-0.91856 -5.098913,-2.06265 -5.344314,-4.23984 -0.373681,-3.31529 3.698859,-5.54799 7.96103,-4.3645 2.267324,0.62958 3.819925,3.22524 2.681579,4.4831 -0.814718,0.90025 -1.613355,0.66501 -2.652393,-0.78125 -0.615252,-0.85639 -1.194147,-1.36088 -1.685393,-1.46877 -1.43866,-0.31599 -3.197422,0.48175 -3.197422,1.45028 0,0.76761 0.939299,1.34648 3.070995,1.89257 2.380048,0.60971 3.387849,1.07332 4.407704,2.02764 1.397374,1.30758 1.497263,3.77483 0.225155,5.56134 -1.191552,1.67338 -4.653545,2.52971 -7.262669,1.79643 z m 8.290065,-0.16548 c -0.291042,-0.29104 -0.529167,-0.77619 -0.529167,-1.0781 0,-0.30191 1.075956,-3.30824 2.391014,-6.68073 1.638477,-4.2019 2.600768,-6.31916 3.057462,-6.72711 0.890465,-0.79541 2.216235,-0.78749 2.972734,0.0178 0.316774,0.33719 1.720822,3.44386 3.120112,6.90371 2.20353,5.44836 2.50508,6.37643 2.2522,6.93145 -0.16059,0.35245 -0.58651,0.77501 -0.9465,0.93903 -0.95909,0.43699 -1.79773,-0.22685 -2.44688,-1.93687 l -0.53595,-1.41185 -2.913605,-0.0745 -2.913603,-0.0745 -0.602095,1.48347 c -0.936019,2.3062 -1.799891,2.81405 -2.905722,1.70822 z m 8.202083,-5.98735 c 0,-0.36302 -1.708225,-4.86057 -1.846104,-4.86057 -0.08104,0 -0.492162,0.98227 -0.9136,2.18282 -0.421437,1.20054 -0.819086,2.33164 -0.883664,2.51354 -0.08683,0.24457 0.372432,0.33073 1.762977,0.33073 1.034215,0 1.880391,-0.0749 1.880391,-0.16652 z m 10.093002,6.24694 c -2.56517,-0.53745 -4.64469,-2.44032 -5.32594,-4.8735 -0.48743,-1.74092 -0.24205,-5.28951 0.45976,-6.64893 1.36067,-2.63565 4.09342,-3.98604 7.60976,-3.76037 2.24365,0.14398 3.89499,0.93163 4.81412,2.29619 1.04449,1.5507 0.55494,3.20202 -0.94927,3.20202 -0.55998,0 -1.88477,-1.14573 -1.88477,-1.63002 0,-0.462 -1.74732,-1.27845 -2.73813,-1.27941 -3.07211,-0.003 -4.88983,2.87435 -4.12952,6.53676 0.24434,1.177 0.54421,1.75314 1.31211,2.52104 0.95119,0.9512 1.07346,0.99538 2.75479,0.99538 0.96768,0 2.17231,-0.17252 2.67696,-0.38337 0.82704,-0.34556 0.91754,-0.48628 0.91754,-1.4266 0,-0.87004 -0.20592,-1.27225 -1.24048,-2.42293 l -1.24049,-1.37972 2.4526,0.0943 c 3.09654,0.1191 3.20337,0.23385 3.20337,3.44091 v 2.31941 l -0.90357,0.72097 c -1.86181,1.48557 -5.23667,2.21257 -7.78884,1.67784 z m 10.24308,-0.5008 -0.62462,-0.50578 v -6.65929 c 0,-6.2866 0.0287,-6.68031 0.51359,-7.03484 0.39923,-0.29192 1.59089,-0.37555 5.35171,-0.37555 h 4.83812 l 0.43341,0.66146 c 0.40148,0.61274 0.40148,0.71018 0,1.32292 -0.42808,0.65333 -0.47883,0.66146 -4.13148,0.66146 h -3.69806 v 1.5875 1.5875 h 3.19239 c 3.56588,0 4.21594,0.19726 4.21594,1.27931 0,1.24504 -0.35752,1.36652 -4.02167,1.36652 h -3.38666 v 1.83256 1.83257 l 3.82398,0.0857 c 4.09809,0.0918 4.44425,0.20352 4.44425,1.43425 0,1.29665 -0.52464,1.42954 -5.64366,1.42954 -4.21626,0 -4.74482,-0.0504 -5.30724,-0.50579 z"
         id="path81"
         inkscape:connector-curvature="0" />
      <path
         style="fill:#4f5051;stroke-width:0.22924994"
         d="m 81.479497,139.57215 c -1.241256,-0.61441 -2.316465,-1.99459 -2.579876,-3.31165 -0.12802,-0.6401 -0.03557,-0.95804 0.407396,-1.401 0.777634,-0.77764 1.610502,-0.59704 2.256085,0.4892 1.055843,1.77653 1.854744,2.40992 3.039659,2.40992 1.227534,0 2.506127,-0.55842 2.753276,-1.20247 0.567126,-1.47791 -0.207052,-2.23257 -3.078817,-3.00119 -3.052366,-0.81696 -4.2746,-1.59011 -4.835502,-3.05881 -0.578936,-1.51593 -0.35439,-2.77479 0.71148,-3.98875 1.519398,-1.7305 5.435537,-2.22433 7.832198,-0.98765 1.857542,0.95849 2.763664,3.16273 1.696974,4.12807 -0.707966,0.64071 -1.540977,0.53652 -2.083481,-0.26057 -0.261455,-0.38416 -0.808479,-1.05384 -1.21561,-1.4882 -0.661841,-0.70609 -0.866132,-0.77554 -1.928966,-0.65574 -3.155876,0.35571 -2.830898,2.60089 0.489459,3.38153 2.376976,0.55884 4.037087,1.28369 4.82605,2.10719 0.618722,0.64581 0.780443,1.08263 0.872626,2.35705 0.154475,2.1356 -0.58437,3.47074 -2.429455,4.39018 -1.800291,0.89713 -5.019029,0.94153 -6.733496,0.0929 z m 9.381373,0.16624 c -0.236534,-0.23653 -0.430062,-0.65147 -0.430062,-0.92207 0,-0.90672 4.833394,-12.79431 5.45466,-13.41558 0.782093,-0.78209 1.988135,-0.78691 2.851471,-0.0114 0.433654,0.38955 1.457141,2.56155 2.961071,6.28386 1.26409,3.1287 2.39964,6.03932 2.52345,6.46805 0.33442,1.15808 -0.30291,1.99861 -1.51544,1.99861 -0.91162,0 -0.9682,-0.0595 -1.7684,-1.86047 l -0.82664,-1.86049 -2.789567,0.0745 c -2.672219,0.0714 -2.800693,0.10156 -3.054147,0.71678 -0.942225,2.28713 -1.323378,2.79739 -2.149625,2.87778 -0.501838,0.0488 -0.99571,-0.0886 -1.256771,-0.34963 z m 8.301188,-5.92161 c 0,-0.48705 -1.665674,-4.78941 -1.854235,-4.78941 -0.165184,0 -1.849932,4.44571 -1.849932,4.88159 0,0.08 0.833438,0.1455 1.852083,0.1455 1.018646,0 1.852084,-0.10696 1.852084,-0.23768 z m 8.930612,5.92175 c -2.70794,-0.99455 -4.20538,-3.26393 -4.38269,-6.642 -0.19092,-3.63758 1.12037,-6.20483 3.84536,-7.52848 1.84385,-0.89563 5.49244,-0.90469 7.29297,-0.0181 2.26654,1.11604 3.30186,3.51487 1.91047,4.42654 -0.89975,0.58954 -1.7231,0.31666 -2.49494,-0.82687 -0.80772,-1.19669 -1.79063,-1.70974 -3.27556,-1.70974 -2.19625,0 -3.73179,1.61231 -4.04033,4.24232 -0.23446,1.99858 0.24457,3.58582 1.44426,4.78551 1.27539,1.27539 2.72877,1.53244 4.79276,0.84768 1.43366,-0.47565 1.45641,-0.49938 1.53634,-1.60259 0.0739,-1.02041 -0.0316,-1.24027 -1.18854,-2.47718 l -1.26967,-1.35738 2.33642,0.0959 c 3.05783,0.12558 3.34795,0.42479 3.34795,3.45286 0,1.94881 -0.0551,2.1628 -0.73085,2.83856 -1.17615,1.17615 -3.42822,1.87735 -5.9598,1.85563 -1.19509,-0.0103 -2.61896,-0.18247 -3.16415,-0.3827 z m 12.10376,0.20989 c -1.181,-0.29029 -1.19062,-0.34965 -1.19062,-7.34056 0,-6.12913 0.0395,-6.70919 0.48385,-7.11135 0.41245,-0.37327 1.18557,-0.43789 5.23875,-0.43789 3.34547,0 4.84901,0.0941 5.0724,0.3175 0.50309,0.5031 0.38575,1.74402 -0.19428,2.05444 -0.28147,0.15065 -2.06741,0.2739 -3.96875,0.2739 h -3.45697 v 1.5875 1.5875 h 3.19239 c 3.60444,0 4.21594,0.19188 4.21594,1.32291 0,1.13104 -0.6115,1.32292 -4.21594,1.32292 h -3.19239 v 1.98438 1.98437 h 3.80406 c 4.09055,0 4.5285,0.13765 4.35218,1.36788 -0.1524,1.06343 -1.07817,1.27232 -5.51041,1.24336 -2.25557,-0.0147 -4.33917,-0.0853 -4.63021,-0.15686 z"
         id="path79"
         inkscape:connector-curvature="0" />
      <path
         style="fill:#040607;stroke-width:0.22924994"
         d="m 81.829581,139.64643 c -0.583332,-0.265 -1.446535,-0.92137 -1.91823,-1.4586 -0.69474,-0.79127 -0.857626,-1.20241 -0.857626,-2.16475 0,-1.0318 0.08923,-1.2219 0.678782,-1.44604 0.903311,-0.34344 1.603859,0.0522 2.070622,1.16928 0.618599,1.48052 1.399074,2.0123 2.953346,2.0123 1.877446,0 2.82497,-0.72703 2.711933,-2.08086 -0.09548,-1.1436 -0.673632,-1.49109 -4.220089,-2.53647 -1.849621,-0.54521 -2.444944,-0.85343 -3.108854,-1.60958 -0.694417,-0.7909 -0.821004,-1.14822 -0.820168,-2.31511 0.0012,-1.7164 0.671593,-2.89442 2.039153,-3.58337 2.462354,-1.24048 5.796737,-0.92628 7.524529,0.70903 1.282628,1.21397 1.572517,2.39584 0.78164,3.18672 -0.690071,0.69007 -1.224484,0.70634 -1.773811,0.054 -1.750091,-2.07823 -2.17912,-2.40771 -3.135222,-2.40771 -1.4949,0 -2.526861,0.64861 -2.526861,1.5882 0,1.01183 0.551238,1.34568 3.672423,2.22416 1.364989,0.38418 2.825301,0.94311 3.245138,1.24206 2.791682,1.98786 1.669824,6.66123 -1.832549,7.63394 -1.56698,0.43519 -4.285026,0.32753 -5.484156,-0.21722 z m 8.976739,-0.16348 c -0.511774,-0.78107 -0.668054,-0.25847 2.429264,-8.12354 1.242761,-3.15576 2.444815,-5.89149 2.671231,-6.0794 0.674981,-0.56018 2.446197,-0.43031 2.97105,0.21786 0.678957,0.83848 5.311275,12.40691 5.311275,13.26401 0,0.93048 -0.43349,1.37799 -1.33483,1.37799 -0.87718,0 -1.3934,-0.56558 -2.05265,-2.24895 l -0.51808,-1.32292 -2.919838,-0.0746 -2.919835,-0.0746 -0.571174,1.5266 c -0.721473,1.92831 -0.949589,2.19448 -1.880723,2.19448 -0.512251,0 -0.893745,-0.21136 -1.18569,-0.65692 z m 7.77607,-7.61131 c -0.444007,-1.20054 -0.866296,-2.39117 -0.938418,-2.64583 -0.07212,-0.25466 -0.21688,-0.46302 -0.321684,-0.46302 -0.174624,0 -1.874813,4.63679 -1.867553,5.09323 0.0017,0.10914 0.887808,0.19844 1.969049,0.19844 h 1.965893 z m 10.10296,8.03582 c -2.3099,-0.75416 -4.00083,-2.46412 -4.65211,-4.70444 -0.91933,-3.16237 0.0555,-7.11699 2.14774,-8.71282 3.2955,-2.5136 8.62976,-2.04769 10.63572,0.92895 0.91946,1.36439 0.67609,2.3944 -0.65955,2.79135 -0.49214,0.14627 -0.85913,-0.0918 -2.04626,-1.32729 l -1.44657,-1.50552 -1.71946,0.10948 c -1.45196,0.0925 -1.84293,0.22778 -2.5131,0.86985 -1.1778,1.12841 -1.69585,2.72009 -1.53549,4.71781 0.0735,0.91575 0.32612,2.03718 0.56135,2.49208 1.01117,1.95538 3.59108,2.69082 6.12423,1.7458 1.24408,-0.46412 1.32795,-0.55456 1.40733,-1.51753 0.0755,-0.91642 -0.0485,-1.15892 -1.18068,-2.3084 l -1.26509,-1.28441 h 2.25224 c 1.39896,0 2.37253,0.12029 2.56974,0.3175 0.20305,0.20306 0.3175,1.23737 0.3175,2.86941 0,2.90287 -0.0572,3.00397 -2.24896,3.97739 -1.42706,0.63378 -5.47116,0.95785 -6.74858,0.54079 z m 10.73623,-0.44794 c -0.35569,-0.35569 -0.41577,-1.3668 -0.41577,-6.99646 0,-6.50035 0.007,-6.58571 0.58804,-6.99256 0.47652,-0.33377 1.44537,-0.41188 5.1088,-0.41188 5.03587,0 5.52411,0.13344 5.37221,1.46826 l -0.0888,0.7807 -3.90261,0.0732 -3.9026,0.0732 v 1.84501 1.84501 h 3.40718 c 3.7058,0 4.21153,0.1841 3.9013,1.42016 -0.20828,0.82986 -0.76608,0.95315 -4.33192,0.95748 l -2.97656,0.004 v 1.98438 1.98437 h 3.78354 c 3.97025,0 4.41854,0.1208 4.41854,1.19063 0,1.10749 -0.39031,1.19062 -5.59027,1.19062 -4.15201,0 -5.02266,-0.0674 -5.37104,-0.41577 z"
         id="path77"
         inkscape:connector-curvature="0" />
    </g>
    <path
       style="fill:#008000;stroke:none;stroke-width:1"
       d="M 355.15304,193.4209 C 354.12526,190.18264 342.115,178.04037 328.46359,166.43807 273.10682,119.39048 196.30882,17.926308 207.54827,6.6868579 218.30079,-4.0656629 305.23485,86.338091 341.53464,146.02086 c 7.97938,13.11941 19.55951,49.21536 16.70484,52.07003 -0.66976,0.66976 -2.05866,-1.43174 -3.08644,-4.66999 z"
       id="path142"
       inkscape:connector-curvature="0"
       transform="matrix(0.26458333,0,0,0.26458333,2.4379506,78.221867)" />
    <path
       style="fill:#a0a0a0;stroke:none;stroke-width:1"
       d="m 385.07141,183.21723 c 0,-28.52771 72.35181,-124.242174 126.68514,-167.592223 15.99547,-12.7620437 26.29695,-14.81164974 23.1408,-4.604145 -7.79456,25.208849 -41.22719,72.884234 -78.07992,111.343028 -33.83716,35.31181 -71.74602,67.46524 -71.74602,60.85334 z"
       id="path144"
       inkscape:connector-curvature="0"
       transform="matrix(0.26458333,0,0,0.26458333,2.4379506,78.221867)" />
    <path
       style="fill:#a0a0a0;stroke:none;stroke-width:1"
       d="M 385.88213,177.84624 C 393.0887,133.43731 519.02476,-10.978175 535.86189,5.8589554 538.9641,8.9611679 517.97962,47.274531 498.94789,73.256362 478.1157,101.69615 434.59412,147.23418 405.32038,171.22183 l -21.17961,17.35512 z"
       id="path146"
       inkscape:connector-curvature="0"
       transform="matrix(0.26458333,0,0,0.26458333,2.4379506,78.221867)" />
    <path
       style="fill:#a0a0a0;stroke:none;stroke-width:1"
       d="m 385.07141,180.73865 c 0,-37.33045 133.26432,-192.405854 150.51764,-175.1525341 4.08632,4.0863189 -18.12281,44.0423321 -41.53258,74.7204601 -17.85424,23.397694 -69.35091,76.060644 -91.12791,93.191754 -16.78684,13.20554 -17.85715,13.6395 -17.85715,7.24032 z"
       id="path148"
       inkscape:connector-curvature="0"
       transform="matrix(0.26458333,0,0,0.26458333,2.4379506,78.221867)" />
    <path
       style="fill:#008000;stroke:none;stroke-width:1"
       d="m 385.07367,181.21044 c 0.006,-17.38867 30.94245,-65.77826 72.97318,-114.141492 34.2742,-39.438087 70.65595,-68.3690781 77.44238,-61.5826529 3.45683,3.4568371 -5.98386,23.0206079 -25.0115,51.8308359 -21.41212,32.420642 -76.76055,92.293169 -108.02875,116.858859 -16.14286,12.68255 -17.37741,13.18236 -17.37531,7.03445 z"
       id="path150"
       inkscape:connector-curvature="0"
       transform="matrix(0.26458333,0,0,0.26458333,2.4379506,78.221867)" />
  </g>
</svg>
